<!DOCTYPE svg PUBLIC "-//W3C//DTD SVG 1.1//EN" "http://www.w3.org/Graphics/SVG/1.1/DTD/svg11.dtd">
<!-- Uploaded to: SVG Repo, www.svgrepo.com, Transformed by: SVG Repo Mixer Tools -->
<svg fill="#ffffff" version="1.1" id="Capa_1" xmlns="http://www.w3.org/2000/svg" xmlns:xlink="http://www.w3.org/1999/xlink" width="800px" height="800px" viewBox="0 0 582.617 582.618" xml:space="preserve" stroke="#ffffff">
<g id="SVGRepo_bgCarrier" stroke-width="0"/>
<g id="SVGRepo_tracerCarrier" stroke-linecap="round" stroke-linejoin="round"/>
<g id="SVGRepo_iconCarrier"> <g> <g> <path d="M537.705,225.35c3.701-12.062,5.701-24.865,5.701-38.14c0-71.77-58.182-129.952-129.951-129.952 c-70.9,0-128.499,56.788-129.885,127.354c-13.044-10.958-29.865-17.567-48.238-17.567c-32.748,0-60.582,20.979-70.833,50.227 c8.984-1.542,18.204-2.39,27.62-2.39c42.938,0,83.453,16.567,114.081,46.65c16.328,16.038,28.85,34.963,37.123,55.631h64.533 h5.602h123.23c25.367,0,45.93-20.563,45.93-45.931C582.615,246.21,562.596,225.901,537.705,225.35z"/> <path d="M52.161,525.359h139.955h6.362h195.935c47.078,0,85.246-38.164,85.246-85.246c0-47.078-38.164-85.245-85.246-85.245 c-20.863,0-39.967,7.506-54.783,19.951c-0.404-20.523-5.018-40.006-12.975-57.656c-23.117-51.273-74.636-86.98-134.536-86.98 c-10.759,0-21.239,1.181-31.343,3.369C94.327,247.927,44.532,307.022,44.532,377.772c0,15.076,2.274,29.617,6.472,43.317 C22.735,421.713,0,444.777,0,473.195C-0.003,502.001,23.351,525.359,52.161,525.359z"/> </g> </g> </g>
</svg>