<?xml version="1.0" encoding="iso-8859-1"?>
<!-- Uploaded to: SVG Repo, www.svgrepo.com, Generator: SVG Repo Mixer Tools -->
<svg height="800px" width="800px" version="1.1" id="Layer_1" xmlns="http://www.w3.org/2000/svg" xmlns:xlink="http://www.w3.org/1999/xlink" 
	 viewBox="0 0 512 512" xml:space="preserve">
<g>
	<path style="fill:#1EB615;" d="M452.788,230.577c-22.043,16.713-60.603,18.807-60.603,18.807s-60.604,24.382-102.4,103.097
		s-86.378,138.621-130.264,149.07h342.03V212.464C501.551,212.464,481.959,208.458,452.788,230.577z"/>
	<path style="fill:#1EB615;" d="M208.98,303.718c38.814-32.421,79.423-45.685,102.796-50.975l4.481-3.359
		c0,0-60.604-37.616-119.118-58.514S50.156,202.014,11.147,202.014l-0.697,143.5C10.45,345.514,149.77,353.175,208.98,303.718z"/>
</g>
<path style="fill:#92E03F;" d="M10.45,345.514c0,0,139.32,7.662,198.53-41.796s122.601-54.335,122.601-54.335h60.604
	c0,0-60.604,24.382-102.4,103.097s-86.378,138.621-130.264,149.07H10.449L10.45,345.514z"/>
<path style="fill:#10BAFC;" d="M286.684,89.434c0-20.106,15.967-36.472,35.911-37.137c7.988-24.298,30.847-41.848,57.818-41.848
	c28.442,0,52.322,19.51,59,45.875c0.523-0.024,1.048-0.044,1.578-0.044c18.309,0,33.154,14.844,33.154,33.154H286.684z"/>
<path style="fill:#92E03F;" d="M501.551,501.551c0-23.984-19.444-43.427-43.427-43.427c-0.693,0-1.38,0.026-2.066,0.057
	c-8.747-34.535-40.028-60.091-77.284-60.091c-35.328,0-65.273,22.989-75.735,54.816C276.916,453.777,256,475.215,256,501.552
	h245.551V501.551z"/>
<path d="M503.644,202.228c-2.476-0.51-25.152-4.252-57.169,20.022c-18.369,13.927-51.543,16.477-54.617,16.685h-60.276
	c-0.268,0-0.535,0.01-0.801,0.03c-0.579,0.045-3.961,0.33-9.502,1.239c-6.27-3.861-63.829-38.891-120.625-59.175
	c-42.218-15.08-97.078-4.769-141.16,3.513c-20.055,3.769-37.377,7.023-49.044,7.023C4.679,191.565,0,196.244,0,202.014v299.536
	c0,5.771,4.679,10.449,10.449,10.449h491.102c5.77,0,10.449-4.678,10.449-10.449V212.464
	C512,207.499,508.507,203.221,503.644,202.228z M459.101,238.902c13.777-10.446,24.905-14.252,32.001-15.583v235.659
	c-7.688-5.97-17.028-9.908-27.208-10.996c-12.53-35.898-46.471-60.341-85.119-60.341c-36.712,0-69.338,22.026-83.242,55.486
	c-25.106,3.847-44.709,23.203-49.067,47.975h-44.928c30.681-24.33,62.886-68.578,97.476-133.723
	c35.959-67.723,86.879-93.607,95.729-97.704C403.364,258.98,437.527,255.26,459.101,238.902z M63.352,205.08
	c41.604-7.816,93.38-17.545,130.272-4.372c37.348,13.339,76.009,33.89,98.247,46.486c-24.56,7.523-57.572,21.757-89.59,48.503
	c-42.999,35.917-134.154,39.795-171.348,39.795c-3.823,0-7.199-0.04-10.035-0.096V211.923
	C32.869,210.807,47.274,208.102,63.352,205.08z M20.898,356.301c2.866,0.054,6.235,0.091,10.035,0.091
	c49.032,0,138.232-5.801,184.747-44.654c53.586-44.761,111.495-51.418,116.376-51.905h22.463
	c-21.965,16.336-50.718,43.972-73.962,87.747c-45.656,85.982-86.802,134.257-122.318,143.522H20.898V356.301z M435.374,491.102
	H267.875c4.386-15.66,18.422-27.184,35.512-27.752c4.383-0.146,8.209-3.013,9.579-7.18c9.365-28.49,35.812-47.631,65.809-47.631
	c31.754,0,59.369,21.468,67.154,52.207c1.217,4.805,5.628,8.11,10.597,7.873c0.53-0.023,1.062-0.047,1.598-0.047
	c14.533,0,26.902,9.451,31.282,22.529L435.374,491.102L435.374,491.102z"/>
<path d="M218.123,99.883h256.021c5.77,0,10.449-4.679,10.449-10.449c0-21.931-16.279-40.134-37.387-43.16
	c-10.305-27.598-36.75-46.273-66.792-46.273c-28.568,0-54.009,16.868-65.29,42.616c-18.878,3.449-33.659,17.844-37.754,36.369
	h-59.246c-5.771,0-10.449,4.679-10.449,10.449C207.674,95.205,212.353,99.883,218.123,99.883z M322.943,62.74
	c4.382-0.146,8.209-3.013,9.579-7.179c6.816-20.732,26.063-34.662,47.892-34.662c23.109,0,43.205,15.622,48.871,37.991
	c1.219,4.815,5.652,8.082,10.618,7.872c0.362-0.018,0.723-0.032,1.089-0.032c8.754,0,16.366,4.98,20.154,12.256H299.228
	C303.148,69.677,312.179,63.1,322.943,62.74z"/>
<path d="M163.354,99.883h19.243c5.77,0,10.449-4.679,10.449-10.449s-4.679-10.449-10.449-10.449h-19.243
	c-5.771,0-10.449,4.679-10.449,10.449C152.905,95.205,157.584,99.883,163.354,99.883z"/>
<path d="M51.201,71.054c11.618,0,21.071,9.453,21.071,21.071c0,5.771,4.679,10.449,10.449,10.449S93.17,97.897,93.17,92.126
	c0-11.618,9.453-21.071,21.071-21.071c5.77,0,10.449-4.679,10.449-10.449s-4.679-10.449-10.449-10.449
	c-12.55,0-23.823,5.544-31.52,14.304c-7.698-8.76-18.97-14.305-31.52-14.305c-5.77,0-10.449,4.679-10.449,10.449
	S45.431,71.054,51.201,71.054z"/>
<path d="M316.257,166.985c-7.698-8.76-18.97-14.304-31.52-14.304c-5.771,0-10.449,4.679-10.449,10.449
	c0,5.77,4.678,10.449,10.449,10.449c11.618,0,21.071,9.453,21.071,21.071c0,5.77,4.679,10.449,10.449,10.449
	c5.77,0,10.449-4.679,10.449-10.449c0-11.618,9.453-21.071,21.071-21.071c5.77,0,10.449-4.679,10.449-10.449
	c0-5.77-4.679-10.449-10.449-10.449C335.227,152.682,323.954,158.225,316.257,166.985z"/>
<path d="M378.93,420.193c-21.138,0-40.814,10.484-52.632,28.045c-3.222,4.788-1.953,11.281,2.834,14.503
	c1.791,1.205,3.818,1.782,5.825,1.782c3.36,0,6.66-1.619,8.678-4.615c7.93-11.782,21.125-18.816,35.296-18.816
	c5.77,0,10.449-4.679,10.449-10.449C389.379,424.872,384.701,420.193,378.93,420.193z"/>
<path d="M418.062,433.702c-4.539-3.566-11.108-2.772-14.67,1.766c-3.564,4.539-2.773,11.107,1.766,14.67
	c2.996,2.352,5.665,5.094,7.934,8.148c2.051,2.761,5.203,4.218,8.396,4.218c2.165,0,4.351-0.671,6.223-2.063
	c4.632-3.442,5.598-9.987,2.157-14.619C426.49,441.28,422.518,437.201,418.062,433.702z"/>
<path d="M194.88,369.106c1.817,0,3.658-0.474,5.334-1.472c5.653-3.365,10.856-7.022,15.464-10.869
	c4.429-3.7,5.022-10.289,1.323-14.718c-3.701-4.429-10.289-5.02-14.718-1.323c-3.761,3.141-8.052,6.153-12.756,8.953
	c-4.959,2.951-6.587,9.363-3.635,14.322C187.845,367.281,191.317,369.106,194.88,369.106z"/>
<path d="M172.426,369.802c-1.844-5.467-7.774-8.408-13.241-6.559c-37.442,12.634-82.19,16.259-113.138,17.076
	c-5.769,0.153-10.323,4.952-10.169,10.721c0.149,5.676,4.796,10.173,10.44,10.173c0.093,0,0.187-0.001,0.281-0.004
	c32.383-0.853,79.362-4.698,119.27-18.166C171.335,381.197,174.271,375.269,172.426,369.802z"/>
</svg>